<svg xmlns="http://www.w3.org/2000/svg" xmlns:xlink="http://www.w3.org/1999/xlink" viewBox="0 0 158 20"><path d="M 7.935 13.5 C 7.846 13.154 7.666 12.838 7.413 12.585 C 7.16 12.333 6.844 12.152 6.498 12.063 L 0.363 10.481 C 0.259 10.451 0.167 10.388 0.101 10.301 C 0.035 10.215 0 10.109 0 10 C 0 9.891 0.035 9.785 0.101 9.699 C 0.167 9.612 0.259 9.549 0.363 9.519 L 6.498 7.936 C 6.844 7.847 7.16 7.667 7.413 7.414 C 7.665 7.162 7.846 6.846 7.935 6.5 L 9.517 0.365 C 9.547 0.26 9.61 0.168 9.697 0.102 C 9.783 0.036 9.89 0 9.999 0 C 10.108 0 10.214 0.036 10.301 0.102 C 10.388 0.168 10.451 0.26 10.48 0.365 L 12.061 6.5 C 12.15 6.846 12.331 7.162 12.584 7.415 C 12.836 7.667 13.152 7.848 13.498 7.937 L 19.633 9.518 C 19.738 9.547 19.831 9.61 19.898 9.697 C 19.964 9.784 20 9.891 20 10 C 20 10.109 19.964 10.216 19.898 10.303 C 19.831 10.39 19.738 10.453 19.633 10.482 L 13.498 12.063 C 13.152 12.152 12.836 12.333 12.584 12.585 C 12.331 12.838 12.15 13.154 12.061 13.5 L 10.479 19.635 C 10.45 19.74 10.387 19.832 10.3 19.898 C 10.213 19.964 10.107 20 9.998 20 C 9.889 20 9.782 19.964 9.696 19.898 C 9.609 19.832 9.546 19.74 9.516 19.635 Z" fill="rgb(21,21,23)"></path><path d="M 23.328 6.614 C 21.493 6.614 20 5.13 20 3.307 C 20 1.484 21.493 0 23.328 0 C 25.163 0 26.614 1.484 26.614 3.307 C 26.614 5.13 25.163 6.614 23.328 6.614 Z" fill="rgb(75,236,60)"></path><path d="M 34.548 13.5 C 34.459 13.154 34.279 12.838 34.026 12.585 C 33.773 12.333 33.458 12.152 33.112 12.063 L 26.977 10.481 C 26.872 10.451 26.78 10.388 26.714 10.301 C 26.649 10.215 26.613 10.109 26.613 10 C 26.613 9.891 26.649 9.785 26.714 9.699 C 26.78 9.612 26.872 9.549 26.977 9.519 L 33.112 7.936 C 33.458 7.847 33.773 7.667 34.026 7.414 C 34.279 7.162 34.459 6.846 34.548 6.5 L 36.13 0.365 C 36.16 0.26 36.223 0.168 36.31 0.102 C 36.397 0.036 36.503 0 36.612 0 C 36.721 0 36.827 0.036 36.914 0.102 C 37.001 0.168 37.064 0.26 37.093 0.365 L 38.674 6.5 C 38.764 6.846 38.944 7.162 39.197 7.415 C 39.45 7.667 39.765 7.848 40.111 7.937 L 46.246 9.518 C 46.352 9.547 46.445 9.61 46.511 9.697 C 46.577 9.784 46.613 9.891 46.613 10 C 46.613 10.109 46.577 10.216 46.511 10.303 C 46.445 10.39 46.352 10.453 46.246 10.482 L 40.111 12.063 C 39.765 12.152 39.45 12.333 39.197 12.585 C 38.944 12.838 38.764 13.154 38.674 13.5 L 37.093 19.635 C 37.063 19.74 37 19.832 36.913 19.898 C 36.826 19.964 36.72 20 36.611 20 C 36.502 20 36.396 19.964 36.309 19.898 C 36.222 19.832 36.159 19.74 36.13 19.635 Z" fill="rgb(75,236,60)"></path><path d="M 49.633 20 C 47.968 20 46.613 18.654 46.613 17 C 46.613 15.346 47.968 14 49.633 14 C 51.297 14 52.613 15.346 52.613 17 C 52.613 18.654 51.297 20 49.633 20 Z" fill="rgb(21,21,23)"></path><path d="M 60.548 13.5 C 60.459 13.154 60.279 12.838 60.026 12.585 C 59.773 12.333 59.458 12.152 59.112 12.063 L 52.977 10.481 C 52.872 10.451 52.78 10.388 52.714 10.301 C 52.649 10.215 52.613 10.109 52.613 10 C 52.613 9.891 52.649 9.785 52.714 9.699 C 52.78 9.612 52.872 9.549 52.977 9.519 L 59.112 7.936 C 59.458 7.847 59.773 7.667 60.026 7.414 C 60.279 7.162 60.459 6.846 60.548 6.5 L 62.13 0.365 C 62.16 0.26 62.223 0.168 62.31 0.102 C 62.397 0.036 62.503 0 62.612 0 C 62.721 0 62.827 0.036 62.914 0.102 C 63.001 0.168 63.064 0.26 63.093 0.365 L 64.674 6.5 C 64.764 6.846 64.944 7.162 65.197 7.415 C 65.45 7.667 65.765 7.848 66.111 7.937 L 72.246 9.518 C 72.352 9.547 72.445 9.61 72.511 9.697 C 72.577 9.784 72.613 9.891 72.613 10 C 72.613 10.109 72.577 10.216 72.511 10.303 C 72.445 10.39 72.352 10.453 72.246 10.482 L 66.111 12.063 C 65.765 12.152 65.45 12.333 65.197 12.585 C 64.944 12.838 64.764 13.154 64.674 13.5 L 63.093 19.635 C 63.063 19.74 63 19.832 62.913 19.898 C 62.826 19.964 62.72 20 62.611 20 C 62.502 20 62.396 19.964 62.309 19.898 C 62.222 19.832 62.159 19.74 62.13 19.635 Z" fill="rgb(21,21,23)"></path><path d="M 75.942 6.614 C 74.107 6.614 72.613 5.13 72.613 3.307 C 72.613 1.484 74.107 0 75.942 0 C 77.776 0 79.227 1.484 79.227 3.307 C 79.227 5.13 77.776 6.614 75.942 6.614 Z" fill="rgb(75,236,60)"></path><path d="M 87.164 13.5 C 87.075 13.154 86.894 12.838 86.641 12.585 C 86.389 12.333 86.073 12.152 85.727 12.063 L 79.592 10.481 C 79.487 10.451 79.395 10.388 79.33 10.301 C 79.264 10.215 79.228 10.109 79.228 10 C 79.228 9.891 79.264 9.785 79.33 9.699 C 79.395 9.612 79.487 9.549 79.592 9.519 L 85.727 7.936 C 86.073 7.847 86.388 7.667 86.641 7.414 C 86.894 7.162 87.074 6.846 87.164 6.5 L 88.746 0.365 C 88.775 0.26 88.838 0.168 88.925 0.102 C 89.012 0.036 89.118 0 89.227 0 C 89.336 0 89.442 0.036 89.529 0.102 C 89.616 0.168 89.679 0.26 89.709 0.365 L 91.29 6.5 C 91.379 6.846 91.559 7.162 91.812 7.415 C 92.065 7.667 92.381 7.848 92.727 7.937 L 98.862 9.518 C 98.967 9.547 99.06 9.61 99.126 9.697 C 99.193 9.784 99.228 9.891 99.228 10 C 99.228 10.109 99.193 10.216 99.126 10.303 C 99.06 10.39 98.967 10.453 98.862 10.482 L 92.727 12.063 C 92.381 12.152 92.065 12.333 91.812 12.585 C 91.559 12.838 91.379 13.154 91.29 13.5 L 89.708 19.635 C 89.678 19.74 89.615 19.832 89.528 19.898 C 89.442 19.964 89.335 20 89.226 20 C 89.117 20 89.011 19.964 88.924 19.898 C 88.837 19.832 88.774 19.74 88.745 19.635 Z" fill="rgb(75,236,60)"></path><path d="M 102.248 20 C 100.583 20 99.228 18.654 99.228 17 C 99.228 15.346 100.583 14 102.248 14 C 103.912 14 105.229 15.346 105.229 17 C 105.229 18.654 103.912 20 102.248 20 Z" fill="rgb(21,21,23)"></path><path d="M 113.164 13.5 C 113.075 13.154 112.894 12.838 112.641 12.585 C 112.389 12.333 112.073 12.152 111.727 12.063 L 105.592 10.481 C 105.487 10.451 105.395 10.388 105.33 10.301 C 105.264 10.215 105.229 10.109 105.229 10 C 105.229 9.891 105.264 9.785 105.33 9.699 C 105.395 9.612 105.487 9.549 105.592 9.519 L 111.727 7.936 C 112.073 7.847 112.388 7.667 112.641 7.414 C 112.894 7.162 113.074 6.846 113.164 6.5 L 114.746 0.365 C 114.775 0.26 114.838 0.168 114.925 0.102 C 115.012 0.036 115.118 0 115.227 0 C 115.336 0 115.442 0.036 115.529 0.102 C 115.616 0.168 115.679 0.26 115.709 0.365 L 117.29 6.5 C 117.379 6.846 117.559 7.162 117.812 7.415 C 118.065 7.667 118.381 7.848 118.727 7.937 L 124.861 9.518 C 124.967 9.547 125.06 9.61 125.126 9.697 C 125.193 9.784 125.229 9.891 125.229 10 C 125.229 10.109 125.193 10.216 125.126 10.303 C 125.06 10.39 124.967 10.453 124.861 10.482 L 118.727 12.063 C 118.381 12.152 118.065 12.333 117.812 12.585 C 117.559 12.838 117.379 13.154 117.29 13.5 L 115.708 19.635 C 115.678 19.74 115.615 19.832 115.528 19.898 C 115.441 19.964 115.335 20 115.226 20 C 115.117 20 115.011 19.964 114.924 19.898 C 114.837 19.832 114.774 19.74 114.745 19.635 Z" fill="rgb(21,21,23)"></path><path d="M 128.557 6.614 C 126.722 6.614 125.229 5.13 125.229 3.307 C 125.229 1.484 126.722 0 128.557 0 C 130.392 0 131.842 1.484 131.842 3.307 C 131.842 5.13 130.392 6.614 128.557 6.614 Z" fill="rgb(75,236,60)"></path><path d="M 139.777 13.5 C 139.688 13.154 139.507 12.838 139.255 12.585 C 139.002 12.333 138.686 12.152 138.34 12.063 L 132.205 10.481 C 132.101 10.451 132.008 10.388 131.943 10.301 C 131.877 10.215 131.842 10.109 131.842 10 C 131.842 9.891 131.877 9.785 131.943 9.699 C 132.008 9.612 132.101 9.549 132.205 9.519 L 138.34 7.936 C 138.686 7.847 139.002 7.667 139.254 7.414 C 139.507 7.162 139.688 6.846 139.777 6.5 L 141.359 0.365 C 141.388 0.26 141.451 0.168 141.538 0.102 C 141.625 0.036 141.731 0 141.841 0 C 141.95 0 142.056 0.036 142.143 0.102 C 142.23 0.168 142.293 0.26 142.322 0.365 L 143.903 6.5 C 143.992 6.846 144.173 7.162 144.425 7.415 C 144.678 7.667 144.994 7.848 145.34 7.937 L 151.475 9.518 C 151.58 9.547 151.673 9.61 151.74 9.697 C 151.806 9.784 151.842 9.891 151.842 10 C 151.842 10.109 151.806 10.216 151.74 10.303 C 151.673 10.39 151.58 10.453 151.475 10.482 L 145.34 12.063 C 144.994 12.152 144.678 12.333 144.425 12.585 C 144.173 12.838 143.992 13.154 143.903 13.5 L 142.321 19.635 C 142.292 19.74 142.229 19.832 142.142 19.898 C 142.055 19.964 141.949 20 141.84 20 C 141.73 20 141.624 19.964 141.537 19.898 C 141.45 19.832 141.387 19.74 141.358 19.635 Z" fill="rgb(75,236,60)"></path><path d="M 154.861 20 C 153.197 20 151.842 18.654 151.842 17 C 151.842 15.346 153.197 14 154.861 14 C 156.526 14 157.842 15.346 157.842 17 C 157.842 18.654 156.526 20 154.861 20 Z" fill="rgb(21,21,23)"></path></svg>