<svg xmlns="http://www.w3.org/2000/svg" xmlns:xlink="http://www.w3.org/1999/xlink" viewBox="0 0 74 30"><path d="M 1.12 21 L 1.12 8.22 L 6.275 8.22 C 9.025 8.22 10.755 9.714 10.755 12.072 C 10.755 13.566 9.754 14.7 8.551 15.06 C 9.735 15.24 10.427 15.96 10.537 17.274 L 10.883 21 L 8.898 21 L 8.588 17.526 C 8.515 16.482 7.932 16.014 6.511 16.014 L 3.087 16.014 L 3.087 21 Z M 3.087 14.232 L 6.311 14.232 C 7.786 14.232 8.715 13.476 8.715 12.126 C 8.715 10.758 7.805 10.002 6.147 10.002 L 3.087 10.002 Z M 16.766 21.216 C 13.943 21.216 12.176 19.236 12.176 16.212 C 12.176 13.188 13.943 11.208 16.711 11.208 C 19.352 11.208 21.137 13.062 21.137 16.284 L 21.137 16.77 L 14.18 16.77 C 14.271 18.642 15.236 19.578 16.784 19.578 C 17.914 19.578 18.679 19.02 18.988 18.12 L 20.992 18.246 C 20.482 20.028 18.897 21.216 16.766 21.216 Z M 14.18 15.33 L 19.097 15.33 C 18.97 13.638 18.023 12.828 16.711 12.828 C 15.327 12.828 14.398 13.71 14.18 15.33 Z M 26.263 21.216 C 23.768 21.216 22.22 19.29 22.22 16.212 C 22.22 13.152 23.786 11.208 26.263 11.208 C 27.593 11.208 28.704 11.784 29.232 12.774 L 29.232 8.22 L 31.163 8.22 L 31.163 21 L 29.36 21 L 29.305 19.56 C 28.759 20.604 27.611 21.216 26.263 21.216 Z M 26.773 19.56 C 28.358 19.56 29.232 18.318 29.232 16.212 C 29.232 14.088 28.358 12.864 26.773 12.864 C 25.225 12.864 24.223 14.124 24.223 16.212 C 24.223 18.264 25.225 19.56 26.773 19.56 Z M 33.789 21 L 33.789 11.424 L 35.556 11.424 L 35.61 13.242 C 35.975 11.982 36.74 11.424 37.923 11.424 L 38.852 11.424 L 38.852 13.134 L 37.923 13.134 C 36.448 13.134 35.72 13.836 35.72 15.348 L 35.72 21 Z M 43.552 21.216 C 41.585 21.216 40.364 19.866 40.364 17.58 L 40.364 11.424 L 42.295 11.424 L 42.295 17.094 C 42.295 18.84 42.896 19.614 44.135 19.614 C 45.537 19.614 46.375 18.678 46.375 17.04 L 46.375 11.424 L 48.306 11.424 L 48.306 21 L 46.502 21 L 46.484 19.434 C 45.974 20.604 44.954 21.216 43.552 21.216 Z M 50.763 21 L 50.763 11.424 L 52.53 11.424 L 52.566 13.062 C 53.04 11.892 54.042 11.208 55.262 11.208 C 56.701 11.208 57.703 11.946 58.122 13.188 C 58.559 11.91 59.542 11.208 60.927 11.208 C 62.967 11.208 64.132 12.504 64.132 14.844 L 64.132 21 L 62.202 21 L 62.202 15.312 C 62.202 13.656 61.601 12.81 60.362 12.81 C 59.142 12.81 58.358 13.764 58.358 15.384 L 58.358 21 L 56.519 21 L 56.519 15.384 C 56.519 13.764 56.009 12.81 54.716 12.81 C 53.477 12.81 52.694 13.782 52.694 15.384 L 52.694 21 Z" fill="rgb(21,21,23)"></path><path d="M 68.616 18.75 C 68.616 17.507 69.635 16.5 70.893 16.5 C 72.15 16.5 73.17 17.507 73.17 18.75 C 73.17 19.993 72.15 21 70.893 21 C 69.635 21 68.616 19.993 68.616 18.75 Z" fill="rgb(131,249,120)"></path></svg>