<svg xmlns="http://www.w3.org/2000/svg" width="41" height="29" fill="none"><rect width="39.86" height="27" x=".5" y=".846" fill="#fff" stroke="#DDDDDA" rx="3.5"/><path fill="#353535" fill-rule="evenodd" d="M9.741 10.769c.549.046 1.098-.278 1.44-.688.338-.422.56-.99.504-1.567-.486.023-1.086.323-1.43.746-.314.364-.582.954-.514 1.509Zm6.529 7.447V9.2h3.343c1.727 0 2.933 1.203 2.933 2.96 0 1.759-1.23 2.973-2.978 2.973h-1.915v3.082H16.27Zm-4.59-7.336c-.483-.028-.924.147-1.28.289-.23.09-.424.168-.572.168-.166 0-.368-.082-.595-.173-.297-.12-.637-.256-.994-.25-.817.012-1.578.48-1.995 1.226-.857 1.492-.223 3.701.606 4.915.406.602.892 1.261 1.532 1.238.282-.01.484-.098.694-.188.241-.103.492-.211.884-.211.378 0 .617.105.848.205.218.096.429.188.74.182.664-.011 1.081-.601 1.487-1.202.438-.646.63-1.276.66-1.371l.003-.011-.016-.008c-.146-.068-1.265-.586-1.276-1.976-.01-1.166.888-1.757 1.03-1.85l.016-.012c-.572-.855-1.463-.948-1.772-.971Zm13.394 7.404c.869 0 1.675-.445 2.04-1.15h.03v1.08h1.28v-4.487c0-1.3-1.03-2.14-2.613-2.14-1.468 0-2.555.85-2.595 2.019h1.246c.103-.555.612-.92 1.31-.92.846 0 1.32.4 1.32 1.134v.497l-1.726.104c-1.607.099-2.475.764-2.475 1.92 0 1.168.897 1.943 2.183 1.943Zm.37-1.07c-.737 0-1.206-.358-1.206-.908 0-.566.452-.896 1.315-.948l1.538-.098v.509c0 .844-.71 1.445-1.647 1.445Zm7.227 1.356c-.555 1.579-1.19 2.1-2.538 2.1-.103 0-.446-.012-.526-.035v-1.082c.086.012.297.023.406.023.611 0 .954-.26 1.166-.936l.126-.4-2.344-6.562h1.446l1.63 5.325h.028l1.629-5.325H35.1l-2.43 6.892Zm-15.015-8.19h1.595c1.2 0 1.886.648 1.886 1.788 0 1.139-.686 1.792-1.892 1.792h-1.589v-3.58Z" clip-rule="evenodd"/></svg>