<svg xmlns="http://www.w3.org/2000/svg" width="42" height="29" fill="none"><rect width="39.86" height="27" x="1.359" y=".846" fill="#fff" stroke="#DDDDDA" rx="3.5"/><path fill="#3C4043" fill-rule="evenodd" d="M20.156 18.734v-3.525h1.82c.747 0 1.376-.25 1.89-.742l.122-.125a2.536 2.536 0 0 0-.123-3.552c-.5-.5-1.183-.77-1.888-.756h-2.922v8.7h1.101Zm0-4.592v-3.038h1.848c.397 0 .773.152 1.054.43.596.582.61 1.554.034 2.157a1.43 1.43 0 0 1-1.088.451h-1.848Zm8.974-.895c-.472-.437-1.115-.66-1.93-.66-1.046 0-1.834.39-2.354 1.16l.972.617c.356-.527.842-.79 1.458-.79.39 0 .766.145 1.06.408.288.25.452.61.452.993v.256c-.424-.236-.958-.36-1.615-.36-.766 0-1.382.18-1.84.547-.46.368-.692.854-.692 1.471a1.85 1.85 0 0 0 .65 1.457c.431.389.979.583 1.622.583.76 0 1.362-.34 1.82-1.02h.048v.826h1.054v-3.67c0-.77-.233-1.38-.705-1.818Zm-2.99 4.391a.904.904 0 0 1-.363-.729c0-.325.15-.596.445-.811.301-.215.678-.326 1.123-.326.616-.007 1.095.132 1.437.41 0 .47-.185.88-.548 1.227-.328.333-.773.52-1.238.52a1.333 1.333 0 0 1-.856-.291Zm6.059 3.713 3.681-8.568h-1.197l-1.704 4.274h-.02l-1.746-4.274h-1.197l2.415 5.571-1.368 2.998h1.136Z" clip-rule="evenodd"/><path fill="#4285F4" d="M16.354 14.445c0-.34-.028-.68-.083-1.013h-4.646v1.921h2.662a2.315 2.315 0 0 1-.986 1.52v1.249h1.588c.93-.868 1.465-2.151 1.465-3.677Z"/><path fill="#34A853" d="M11.627 19.329c1.327 0 2.45-.444 3.264-1.207l-1.588-1.25c-.445.306-1.013.48-1.676.48-1.287 0-2.375-.881-2.765-2.061H7.227v1.29a4.915 4.915 0 0 0 4.4 2.748Z"/><path fill="#FBBC04" d="M8.86 15.29a3.054 3.054 0 0 1 0-1.915v-1.283H7.224a5.014 5.014 0 0 0 0 4.482L8.86 15.29Z"/><path fill="#EA4335" d="M11.627 11.316a2.632 2.632 0 0 1 1.888.749l1.41-1.43a4.72 4.72 0 0 0-3.298-1.297 4.921 4.921 0 0 0-4.4 2.755l1.635 1.29c.39-1.186 1.478-2.067 2.765-2.067Z"/></svg>